<svg xmlns="http://www.w3.org/2000/svg" xmlns:xlink="http://www.w3.org/1999/xlink" width="400" zoomAndPan="magnify" viewBox="0 0 300 74.999997" height="100" preserveAspectRatio="xMidYMid meet" version="1.0"><defs><g/><clipPath id="e132ce03fb"><path d="M 32 14.46875 L 74 14.46875 L 74 60.21875 L 32 60.21875 Z M 32 14.46875 " clip-rule="nonzero"/></clipPath><clipPath id="bfee110b2b"><path d="M 48.113281 27.96875 L 57.863281 27.96875 L 57.863281 46.71875 L 48.113281 46.71875 Z M 48.113281 27.96875 " clip-rule="nonzero"/></clipPath></defs><g clip-path="url(#e132ce03fb)"><path fill="#2dd4bf" d="M 53.0625 60.511719 L 52.878906 60.457031 C 47.132812 58.664062 42.5 55.46875 39.085938 50.964844 C 36.371094 47.375 34.425781 42.945312 33.324219 37.820312 C 31.445312 29.117188 32.59375 21.503906 32.648438 21.183594 L 32.707031 20.804688 L 53.050781 14.480469 L 73.398438 20.804688 L 73.453125 21.183594 C 73.5 21.503906 74.652344 29.117188 72.78125 37.820312 C 71.675781 42.945312 69.734375 47.375 67.019531 50.964844 C 63.613281 55.46875 58.972656 58.664062 53.226562 60.457031 Z M 33.800781 21.734375 C 33.589844 23.375 32.90625 30.167969 34.519531 37.597656 C 35.585938 42.550781 37.457031 46.804688 40.070312 50.25 C 43.285156 54.492188 47.65625 57.519531 53.0625 59.242188 C 58.476562 57.511719 62.847656 54.484375 66.0625 50.230469 C 68.675781 46.777344 70.535156 42.515625 71.605469 37.5625 C 73.207031 30.140625 72.523438 23.363281 72.3125 21.734375 L 53.050781 15.75 Z M 33.800781 21.734375 " fill-opacity="1" fill-rule="nonzero"/></g><g clip-path="url(#bfee110b2b)"><path fill="#2dd4bf" d="M 57.980469 32.90625 C 57.980469 30.183594 55.769531 27.972656 53.046875 27.972656 C 50.320312 27.972656 48.113281 30.183594 48.113281 32.90625 C 48.113281 34.667969 49.035156 36.210938 50.421875 37.085938 L 48.707031 46.949219 L 57.382812 46.949219 L 55.667969 37.085938 C 57.058594 36.210938 57.980469 34.667969 57.980469 32.90625 Z M 57.980469 32.90625 " fill-opacity="1" fill-rule="nonzero"/><path fill="#2dd4bf" d="M 57.980469 32.90625 C 57.980469 30.183594 55.769531 27.972656 53.046875 27.972656 C 50.320312 27.972656 48.113281 30.183594 48.113281 32.90625 C 48.113281 34.667969 49.035156 36.210938 50.421875 37.085938 L 48.707031 46.949219 L 57.382812 46.949219 L 55.667969 37.085938 C 57.058594 36.210938 57.980469 34.667969 57.980469 32.90625 Z M 57.980469 32.90625 " fill-opacity="1" fill-rule="nonzero"/></g><g fill="#ffffff" fill-opacity="1"><g transform="translate(82.854111, 48.374995)"><g><path d="M 1.0625 -19.203125 L 1.0625 -23.171875 L 19.96875 -23.171875 L 19.96875 -19.203125 L 12.90625 -19.203125 L 12.90625 0 L 8.15625 0 L 8.15625 -19.203125 Z M 1.0625 -19.203125 "/></g></g></g><g fill="#ffffff" fill-opacity="1"><g transform="translate(101.967642, 48.374995)"><g><path d="M 1.90625 0 L 1.90625 -17.171875 L 6.40625 -17.171875 L 6.40625 -14.203125 L 6.5625 -14.203125 C 6.875 -15.253906 7.390625 -16.046875 8.109375 -16.578125 C 8.835938 -17.109375 9.703125 -17.375 10.703125 -17.375 C 10.953125 -17.375 11.210938 -17.363281 11.484375 -17.34375 C 11.753906 -17.320312 11.988281 -17.289062 12.1875 -17.25 L 12.1875 -13.140625 C 11.988281 -13.203125 11.691406 -13.25 11.296875 -13.28125 C 10.910156 -13.320312 10.535156 -13.34375 10.171875 -13.34375 C 9.484375 -13.34375 8.863281 -13.191406 8.3125 -12.890625 C 7.757812 -12.585938 7.328125 -12.160156 7.015625 -11.609375 C 6.703125 -11.066406 6.546875 -10.421875 6.546875 -9.671875 L 6.546875 0 Z M 1.90625 0 "/></g></g></g><g fill="#ffffff" fill-opacity="1"><g transform="translate(114.705156, 48.374995)"><g><path d="M 7.84375 0.25 C 6.644531 0.25 5.597656 -0.0078125 4.703125 -0.53125 C 3.816406 -1.050781 3.128906 -1.800781 2.640625 -2.78125 C 2.148438 -3.757812 1.90625 -4.925781 1.90625 -6.28125 L 1.90625 -17.171875 L 6.546875 -17.171875 L 6.546875 -7.109375 C 6.546875 -6.015625 6.820312 -5.164062 7.375 -4.5625 C 7.9375 -3.96875 8.703125 -3.671875 9.671875 -3.671875 C 10.328125 -3.671875 10.90625 -3.8125 11.40625 -4.09375 C 11.914062 -4.375 12.3125 -4.785156 12.59375 -5.328125 C 12.875 -5.867188 13.015625 -6.53125 13.015625 -7.3125 L 13.015625 -17.171875 L 17.671875 -17.171875 L 17.671875 0 L 13.234375 0 L 13.171875 -4.328125 L 13.5625 -4.328125 C 13.082031 -2.867188 12.375 -1.738281 11.4375 -0.9375 C 10.5 -0.144531 9.300781 0.25 7.84375 0.25 Z M 7.84375 0.25 "/></g></g></g><g fill="#ffffff" fill-opacity="1"><g transform="translate(134.270225, 48.374995)"><g><path d="M 8.796875 0.359375 C 7.390625 0.359375 6.144531 0.15625 5.0625 -0.25 C 3.976562 -0.664062 3.097656 -1.257812 2.421875 -2.03125 C 1.742188 -2.8125 1.316406 -3.75 1.140625 -4.84375 L 5.5 -5.421875 C 5.695312 -4.640625 6.078125 -4.046875 6.640625 -3.640625 C 7.203125 -3.234375 7.945312 -3.03125 8.875 -3.03125 C 9.757812 -3.03125 10.457031 -3.195312 10.96875 -3.53125 C 11.476562 -3.875 11.734375 -4.304688 11.734375 -4.828125 C 11.734375 -5.265625 11.546875 -5.625 11.171875 -5.90625 C 10.804688 -6.195312 10.253906 -6.421875 9.515625 -6.578125 L 6.546875 -7.171875 C 4.890625 -7.515625 3.644531 -8.09375 2.8125 -8.90625 C 1.988281 -9.726562 1.578125 -10.789062 1.578125 -12.09375 C 1.578125 -13.175781 1.875 -14.113281 2.46875 -14.90625 C 3.0625 -15.707031 3.898438 -16.328125 4.984375 -16.765625 C 6.066406 -17.203125 7.335938 -17.421875 8.796875 -17.421875 C 10.179688 -17.421875 11.378906 -17.222656 12.390625 -16.828125 C 13.410156 -16.429688 14.226562 -15.867188 14.84375 -15.140625 C 15.46875 -14.421875 15.859375 -13.566406 16.015625 -12.578125 L 11.875 -12.015625 C 11.726562 -12.617188 11.398438 -13.113281 10.890625 -13.5 C 10.390625 -13.894531 9.71875 -14.09375 8.875 -14.09375 C 8.101562 -14.09375 7.460938 -13.925781 6.953125 -13.59375 C 6.453125 -13.269531 6.203125 -12.851562 6.203125 -12.34375 C 6.203125 -11.90625 6.375 -11.535156 6.71875 -11.234375 C 7.0625 -10.941406 7.625 -10.71875 8.40625 -10.5625 L 11.515625 -9.9375 C 13.191406 -9.601562 14.4375 -9.050781 15.25 -8.28125 C 16.0625 -7.519531 16.46875 -6.523438 16.46875 -5.296875 C 16.46875 -4.160156 16.140625 -3.171875 15.484375 -2.328125 C 14.835938 -1.484375 13.9375 -0.820312 12.78125 -0.34375 C 11.625 0.125 10.296875 0.359375 8.796875 0.359375 Z M 8.796875 0.359375 "/></g></g></g><g fill="#ffffff" fill-opacity="1"><g transform="translate(151.891241, 48.374995)"><g><path d="M 10.71875 -17.171875 L 10.71875 -13.609375 L 0.296875 -13.609375 L 0.296875 -17.171875 Z M 2.796875 -21.390625 L 7.4375 -21.390625 L 7.4375 -5.09375 C 7.4375 -4.539062 7.554688 -4.132812 7.796875 -3.875 C 8.046875 -3.625 8.453125 -3.5 9.015625 -3.5 C 9.222656 -3.5 9.488281 -3.515625 9.8125 -3.546875 C 10.144531 -3.585938 10.398438 -3.625 10.578125 -3.65625 L 11.09375 -0.125 C 10.625 -0.0078125 10.132812 0.0664062 9.625 0.109375 C 9.113281 0.160156 8.625 0.1875 8.15625 0.1875 C 6.382812 0.1875 5.046875 -0.21875 4.140625 -1.03125 C 3.242188 -1.84375 2.796875 -3.035156 2.796875 -4.609375 Z M 2.796875 -21.390625 "/></g></g></g><g fill="#ffffff" fill-opacity="1"><g transform="translate(163.572854, 48.374995)"><g><path d="M 0.703125 0 L 9.140625 -23.171875 L 12.5 -23.171875 L 21.015625 0 L 17.9375 0 L 13.03125 -13.796875 C 12.71875 -14.671875 12.363281 -15.734375 11.96875 -16.984375 C 11.570312 -18.234375 11.085938 -19.835938 10.515625 -21.796875 L 11.125 -21.796875 C 10.550781 -19.828125 10.054688 -18.207031 9.640625 -16.9375 C 9.234375 -15.664062 8.894531 -14.617188 8.625 -13.796875 L 3.796875 0 Z M 4.984375 -6.46875 L 4.984375 -9.03125 L 16.75 -9.03125 L 16.75 -6.46875 Z M 4.984375 -6.46875 "/></g></g></g><g fill="#ffffff" fill-opacity="1"><g transform="translate(185.284171, 48.374995)"><g><path d="M 2.34375 0 L 2.34375 -17.171875 L 5.015625 -17.171875 L 5.015625 -14.53125 L 5.171875 -14.53125 C 5.484375 -15.40625 6.035156 -16.101562 6.828125 -16.625 C 7.617188 -17.15625 8.523438 -17.421875 9.546875 -17.421875 C 9.765625 -17.421875 10.007812 -17.414062 10.28125 -17.40625 C 10.550781 -17.394531 10.757812 -17.382812 10.90625 -17.375 L 10.90625 -14.59375 C 10.820312 -14.613281 10.613281 -14.644531 10.28125 -14.6875 C 9.957031 -14.726562 9.609375 -14.75 9.234375 -14.75 C 8.460938 -14.75 7.757812 -14.582031 7.125 -14.25 C 6.5 -13.914062 6.007812 -13.445312 5.65625 -12.84375 C 5.300781 -12.25 5.125 -11.539062 5.125 -10.71875 L 5.125 0 Z M 2.34375 0 "/></g></g></g><g fill="#ffffff" fill-opacity="1"><g transform="translate(196.404097, 48.374995)"><g><path d="M 9.359375 0.375 C 7.796875 0.375 6.425781 0.00390625 5.25 -0.734375 C 4.070312 -1.472656 3.15625 -2.507812 2.5 -3.84375 C 1.84375 -5.1875 1.515625 -6.738281 1.515625 -8.5 C 1.515625 -10.28125 1.84375 -11.84375 2.5 -13.1875 C 3.15625 -14.53125 4.070312 -15.570312 5.25 -16.3125 C 6.425781 -17.050781 7.796875 -17.421875 9.359375 -17.421875 C 10.222656 -17.421875 11.03125 -17.304688 11.78125 -17.078125 C 12.539062 -16.847656 13.226562 -16.515625 13.84375 -16.078125 C 14.457031 -15.648438 14.976562 -15.125 15.40625 -14.5 C 15.84375 -13.882812 16.164062 -13.1875 16.375 -12.40625 L 13.6875 -11.828125 C 13.570312 -12.273438 13.382812 -12.6875 13.125 -13.0625 C 12.875 -13.445312 12.566406 -13.78125 12.203125 -14.0625 C 11.847656 -14.34375 11.429688 -14.5625 10.953125 -14.71875 C 10.472656 -14.875 9.941406 -14.953125 9.359375 -14.953125 C 8.234375 -14.953125 7.296875 -14.65625 6.546875 -14.0625 C 5.796875 -13.476562 5.234375 -12.695312 4.859375 -11.71875 C 4.492188 -10.75 4.3125 -9.675781 4.3125 -8.5 C 4.3125 -7.332031 4.492188 -6.265625 4.859375 -5.296875 C 5.234375 -4.328125 5.789062 -3.550781 6.53125 -2.96875 C 7.28125 -2.382812 8.222656 -2.09375 9.359375 -2.09375 C 9.941406 -2.09375 10.472656 -2.171875 10.953125 -2.328125 C 11.441406 -2.484375 11.867188 -2.707031 12.234375 -3 C 12.609375 -3.289062 12.921875 -3.632812 13.171875 -4.03125 C 13.421875 -4.4375 13.609375 -4.867188 13.734375 -5.328125 L 16.421875 -4.75 C 16.210938 -3.957031 15.890625 -3.25 15.453125 -2.625 C 15.023438 -2.007812 14.5 -1.472656 13.875 -1.015625 C 13.257812 -0.566406 12.566406 -0.222656 11.796875 0.015625 C 11.035156 0.253906 10.222656 0.375 9.359375 0.375 Z M 9.359375 0.375 "/></g></g></g><g fill="#ffffff" fill-opacity="1"><g transform="translate(214.258389, 48.374995)"><g><path d="M 5.125 -10.234375 L 5.125 0 L 2.34375 0 L 2.34375 -23.171875 L 5.125 -23.171875 L 5.125 -13.015625 L 4.5625 -13.015625 C 5.082031 -14.597656 5.832031 -15.726562 6.8125 -16.40625 C 7.789062 -17.082031 8.9375 -17.421875 10.25 -17.421875 C 11.414062 -17.421875 12.441406 -17.175781 13.328125 -16.6875 C 14.222656 -16.207031 14.921875 -15.484375 15.421875 -14.515625 C 15.921875 -13.546875 16.171875 -12.328125 16.171875 -10.859375 L 16.171875 0 L 13.390625 0 L 13.390625 -10.640625 C 13.390625 -11.984375 13.039062 -13.03125 12.34375 -13.78125 C 11.65625 -14.539062 10.703125 -14.921875 9.484375 -14.921875 C 8.660156 -14.921875 7.914062 -14.742188 7.25 -14.390625 C 6.59375 -14.035156 6.070312 -13.507812 5.6875 -12.8125 C 5.3125 -12.125 5.125 -11.265625 5.125 -10.234375 Z M 5.125 -10.234375 "/></g></g></g><g fill="#ffffff" fill-opacity="1"><g transform="translate(232.78144, 48.374995)"><g><path d="M 2.34375 0 L 2.34375 -17.171875 L 5.125 -17.171875 L 5.125 0 Z M 3.734375 -20.09375 C 3.210938 -20.09375 2.757812 -20.273438 2.375 -20.640625 C 2 -21.003906 1.8125 -21.441406 1.8125 -21.953125 C 1.8125 -22.460938 2 -22.894531 2.375 -23.25 C 2.757812 -23.601562 3.210938 -23.78125 3.734375 -23.78125 C 4.265625 -23.78125 4.71875 -23.601562 5.09375 -23.25 C 5.46875 -22.894531 5.65625 -22.460938 5.65625 -21.953125 C 5.65625 -21.441406 5.46875 -21.003906 5.09375 -20.640625 C 4.71875 -20.273438 4.265625 -20.09375 3.734375 -20.09375 Z M 3.734375 -20.09375 "/></g></g></g><g fill="#ffffff" fill-opacity="1"><g transform="translate(240.246649, 48.374995)"><g><path d="M 7.328125 0 L 0.765625 -17.171875 L 3.78125 -17.171875 L 7.453125 -7.046875 C 7.828125 -6.035156 8.148438 -5.03125 8.421875 -4.03125 C 8.691406 -3.03125 8.96875 -2.0625 9.25 -1.125 L 8.328125 -1.125 C 8.617188 -2.0625 8.898438 -3.03125 9.171875 -4.03125 C 9.441406 -5.03125 9.757812 -6.035156 10.125 -7.046875 L 13.78125 -17.171875 L 16.78125 -17.171875 L 10.21875 0 Z M 7.328125 0 "/></g></g></g><g fill="#ffffff" fill-opacity="1"><g transform="translate(257.16763, 48.374995)"><g><path d="M 9.53125 0.375 C 7.875 0.375 6.441406 0.00390625 5.234375 -0.734375 C 4.035156 -1.484375 3.113281 -2.519531 2.46875 -3.84375 C 1.832031 -5.175781 1.515625 -6.722656 1.515625 -8.484375 C 1.515625 -10.234375 1.832031 -11.78125 2.46875 -13.125 C 3.101562 -14.476562 4.003906 -15.53125 5.171875 -16.28125 C 6.335938 -17.039062 7.691406 -17.421875 9.234375 -17.421875 C 10.210938 -17.421875 11.148438 -17.253906 12.046875 -16.921875 C 12.953125 -16.597656 13.765625 -16.085938 14.484375 -15.390625 C 15.203125 -14.691406 15.765625 -13.789062 16.171875 -12.6875 C 16.585938 -11.59375 16.796875 -10.285156 16.796875 -8.765625 L 16.796875 -7.6875 L 3.296875 -7.6875 L 3.296875 -10.015625 L 15.296875 -10.015625 L 14.03125 -9.171875 C 14.03125 -10.304688 13.84375 -11.304688 13.46875 -12.171875 C 13.101562 -13.046875 12.566406 -13.726562 11.859375 -14.21875 C 11.148438 -14.71875 10.273438 -14.96875 9.234375 -14.96875 C 8.210938 -14.96875 7.328125 -14.71875 6.578125 -14.21875 C 5.835938 -13.71875 5.269531 -13.054688 4.875 -12.234375 C 4.488281 -11.410156 4.296875 -10.503906 4.296875 -9.515625 L 4.296875 -8.0625 C 4.296875 -6.800781 4.507812 -5.722656 4.9375 -4.828125 C 5.363281 -3.941406 5.972656 -3.265625 6.765625 -2.796875 C 7.566406 -2.328125 8.492188 -2.09375 9.546875 -2.09375 C 10.253906 -2.09375 10.890625 -2.195312 11.453125 -2.40625 C 12.023438 -2.613281 12.507812 -2.921875 12.90625 -3.328125 C 13.3125 -3.734375 13.617188 -4.234375 13.828125 -4.828125 L 16.515625 -4.234375 C 16.253906 -3.328125 15.800781 -2.523438 15.15625 -1.828125 C 14.519531 -1.140625 13.722656 -0.597656 12.765625 -0.203125 C 11.804688 0.179688 10.726562 0.375 9.53125 0.375 Z M 9.53125 0.375 "/></g></g></g></svg>